<?xml version="1.0" encoding="utf-8"?>
<!-- Generator: Adobe Illustrator 21.0.0, SVG Export Plug-In . SVG Version: 6.00 Build 0)  -->
<svg version="1.1" id="Layer_1" xmlns="http://www.w3.org/2000/svg" xmlns:xlink="http://www.w3.org/1999/xlink" x="0px" y="0px"
	 viewBox="0 0 481 123" style="enable-background:new 0 0 481 123;" xml:space="preserve">
<style type="text/css">
	.st0{fill:#464646;}
	.st1{fill:#00A1FF;}
	.st2{fill:#005BE8;}
	.st3{fill:#0082FD;}
</style>
<title>CI_KeenTo</title>
<desc>Created with Sketch.</desc>
<g id="Page-1">
	<g id="CI_KEENTO_190820" transform="translate(-179.000000, -236.000000)">
		<g id="Group-3" transform="translate(179.000000, 54.000000)">
			<g id="CI_KeenTo" transform="translate(0.000000, 182.000000)">
				<g id="KEENTO" transform="translate(135.237147, 32.159664)">
					<path id="KEEN" class="st0" d="M20.8,35.6l-7.7,8V58H0V1h13.1v26.7L38.4,1h14.7L29.4,26.4l25,31.6H39.1L20.8,35.6z M104.6,47.5
						v10.6H60.4V1h43.1v10.6h-30V24H100v10.3H73.5v13.2H104.6z M159.3,47.5v10.6h-44.2V1h43.1v10.6h-30V24h26.5v10.3h-26.5v13.2
						H159.3z M222.2,1v57.1h-10.8l-28.5-34.7v34.7h-13.1V1h10.9l28.4,34.7V1H222.2z"/>
					<path id="TO" class="st1" d="M247.6,11.7h-18.3V1H279v10.8h-18.3v46.3h-13.2L247.6,11.7L247.6,11.7z M313.8,59.1
						c-5.9,0-11.3-1.3-16-3.8c-4.8-2.6-8.5-6.1-11.2-10.6s-4-9.5-4-15.1s1.3-10.6,4-15.1s6.4-8,11.2-10.6s10.1-3.8,16-3.8
						s11.3,1.3,16,3.8c4.7,2.6,8.5,6.1,11.2,10.6s4.1,9.5,4.1,15.1s-1.4,10.6-4.1,15.1s-6.4,8-11.2,10.6
						C325,57.8,319.7,59.1,313.8,59.1z M313.8,45.6c3.4,0,6.4-0.7,9.1-2.2s4.9-3.5,6.4-6.1s2.3-5.6,2.3-8.9s-0.8-6.3-2.3-8.9
						s-3.7-4.6-6.4-6.1s-5.8-2.2-9.1-2.2s-6.4,0.7-9.1,2.2s-4.9,3.5-6.4,6.1s-2.3,5.6-2.3,8.9s0.8,6.3,2.3,8.9s3.7,4.6,6.4,6.1
						S310.4,45.6,313.8,45.6z"/>
				</g>
				<g id="Group-2">
					<g id="Group" transform="translate(22.430769, 0.000000)">
						<path id="Rectangle" class="st2" d="M0,87.3l69.9-33.8c1.1-0.5,1.8-1.7,1.8-2.9V5.2c0-1.8-1.5-3.3-3.3-3.3
							c-0.5,0-1,0.1-1.4,0.3L0,34.7l0,0V87.3z"/>
						<path id="Rectangle_1_" class="st1" d="M0,35.1l69.9,33.8c1.1,0.5,1.8,1.7,1.8,2.9v45.3c0,1.8-1.5,3.3-3.3,3.3
							c-0.5,0-1-0.1-1.4-0.3L0,87.6l0,0V35.1z"/>
						<path id="Combined-Shape" class="st3" d="M0,35.1l54,26.1L0,87.3V35.1z"/>
					</g>
					<path id="Rectangle_2_" class="st1" d="M0,0h13.1c1.8,0,3.3,1.5,3.3,3.3v115.8c0,1.8-1.5,3.3-3.3,3.3H0l0,0V0z"/>
				</g>
			</g>
		</g>
	</g>
</g>
<image style="display:none;overflow:visible;" width="218" height="102" xlink:href="32D06CF.jpg"  transform="matrix(0.9999 0 0 0.9999 0 -182)">
</image>
</svg>
