<svg xmlns="http://www.w3.org/2000/svg" viewBox="0 0 273.05 242.29"><defs><style>.cls-1{fill:none;}.cls-2{fill:#c00;}.cls-3{fill:#008;}.cls-4{fill:#fff;}</style></defs><title>자산 1</title><g id="레이어_2" data-name="레이어 2"><g id="레이어_1-2" data-name="레이어 1"><polygon class="cls-1" points="134.59 10.88 134.73 11.16 134.92 11.05 134.59 10.88"/><polygon points="118.85 69.02 122.83 87.02 130.23 70.25 148.46 72.08 134.75 59.71 142.29 43.28 126.7 52.32 112.45 39.84 116.36 58.41 100.81 67.49 118.85 69.02"/><polygon class="cls-2" points="150.64 117.59 150.54 117.49 150.56 117.59 150.64 117.59"/><path class="cls-2" d="M180.9,65.46a73.46,73.46,0,0,0-5.63-5.09,55.35,55.35,0,0,1-4.75,8,5,5,0,0,1,1.11,2.64,36.57,36.57,0,0,1-1.22,15.44q-.58,1.88-1.3,3.68L171,89l8.77,12.6,2.83-1.5,8.54,17.35-2.56,1.23,5.29,14.21-3.06,1.34,1.3,3.45a60.21,60.21,0,0,0,6.82-28.57A59.51,59.51,0,0,0,180.9,65.46Z"/><path class="cls-3" d="M108.59,104.6a52.27,52.27,0,0,1-13.25-.23A50.78,50.78,0,0,1,81,100h0Q78.75,99,76.57,97.71a65.82,65.82,0,0,0-1,11.38,59.47,59.47,0,0,0,18,43.59,65.58,65.58,0,0,0,10.61,8.66l19.5-48.11a36.88,36.88,0,0,1-13.37-6.36A5.09,5.09,0,0,1,108.59,104.6Z"/><path d="M196.07,50.29a86.71,86.71,0,0,0-15.86-12.56A50.93,50.93,0,0,0,179,27.31v0a49.87,49.87,0,0,0-5.71-14.52q-1-1.69-2-3.22v0a48.33,48.33,0,0,0-5.51-6.7L162.86,0,145.78,9.8,142,.61,63.89,46.77l5.67,7.39L52.67,63.89l1.11,4a49.49,49.49,0,0,0,3,8.12.12.12,0,0,1,0,.08q.88,1.84,1.91,3.68l0,0a4.24,4.24,0,0,1,.27.46,85.43,85.43,0,0,0-4.9,28q0,35.24,24.32,59.6t58.79,24.36q34.44,0,58.79-24.36t24.32-58.75Q220.39,74.65,196.07,50.29ZM192.28,164q-22.79,22.79-55,22.79T82.27,164q-22.75-22.79-22.75-55A77.65,77.65,0,0,1,65,79.63q-.84-1.26-1.65-2.61-1-1.64-1.72-3.29a43.75,43.75,0,0,1-2.72-7.28L77.52,55.73,71.82,48.3l62.91-37.13-.13-.28.33.17,3.47-2,1.15-.23,3.68,8.69v0l.19-.16L161.9,6.7a44.38,44.38,0,0,1,4.94,6q1,1.38,1.8,2.87a44.31,44.31,0,0,1,5.1,12.95,43.86,43.86,0,0,1,1,12.26,80,80,0,0,1,17.5,13.33Q215,76.87,215,109.09T192.28,164Z"/><path d="M166.69,38.76a36.67,36.67,0,0,0-5.09-19.11A23.81,23.81,0,0,0,159.83,17a.47.47,0,0,1-.12-.19l-13.06,7.55,14.94,33A36.55,36.55,0,0,0,166.69,38.76Z"/><path d="M184.69,61.67a69.57,69.57,0,0,0-11.91-9.61q-.46,1.38-1,2.8a46.65,46.65,0,0,1-6.55,11.64,32.66,32.66,0,0,1,0,18.46,32,32,0,0,1-6.36,11.72,2,2,0,0,0-.23.27L155.24,99l-2.72-3.79L128,108.62c-.82-.15-1.62-.32-2.41-.5a32.53,32.53,0,0,1-16-9.08A45.22,45.22,0,0,1,96.1,99a46,46,0,0,1-12.79-3.87,44,44,0,0,1-10.07-6.43,67.84,67.84,0,0,0-3,20.34q0,27.73,19.61,47.38a68.93,68.93,0,0,0,17,12.6l22.48-55.46,22.29-12.68,2.11,2.87.11.11,7.78,10.5,0,0s0,0,0,0l.08.08,4.21,5.55L157.65,124l-3.83-3.52s0,0,0,0a.64.64,0,0,0-.15-.12l-3-2.72h-.08l0-.1-3.85-3.54-2.57,2.83L154,136.24l-10.53,10.34,14.17-2.87V161l-7,3.48v10.38q19.3-3.71,34-18.42,19.61-19.65,19.61-47.38T184.69,61.67Zm-80.43,99.66a65.58,65.58,0,0,1-10.61-8.66,59.47,59.47,0,0,1-18-43.59,65.82,65.82,0,0,1,1-11.38Q78.75,99,81.08,100h0a50.78,50.78,0,0,0,14.29,4.33,52.27,52.27,0,0,0,13.25.23,5.09,5.09,0,0,0,1.8,2.26,36.88,36.88,0,0,0,13.37,6.36Zm59.45-50.56-5.59-7.54,11.41-7,5.48,7.85Zm-6.51,17.66,14.75-6.82-5.9-7.74,12.68-7.55,0,0,.8-.5,5.17,10.5-.65.31-.27.15L158,130.69Zm3.41,4.71,23.21-12.07L187.1,130l-1.38.61a.17.17,0,0,0-.12,0l-20.95,11.72Zm11.22,21.07-4.48-9.38,18-9.84,3.56,9.46Zm19-20,3.06-1.34-5.29-14.21,2.56-1.23-8.54-17.35-2.83,1.5L171,89l-1.91,1.19q.73-1.8,1.3-3.68a36.57,36.57,0,0,0,1.22-15.44,5,5,0,0,0-1.11-2.64,55.35,55.35,0,0,0,4.75-8,73.46,73.46,0,0,1,5.63,5.09,59.51,59.51,0,0,1,18,43.63,60.21,60.21,0,0,1-6.82,28.57Z"/><path d="M84.61,86.75a37.33,37.33,0,0,0,18.69,4.67L81.77,62.09l-13,7.55a3.72,3.72,0,0,1,.19.46,29.26,29.26,0,0,0,1.53,2.84A36.75,36.75,0,0,0,84.61,86.75Z"/><path class="cls-4" d="M192.28,54.09a80,80,0,0,0-17.5-13.33,43.86,43.86,0,0,0-1-12.26,44.31,44.31,0,0,0-5.1-12.95q-.84-1.49-1.8-2.87a44.38,44.38,0,0,0-4.94-6L143.4,17.35l-.19.16v0l-3.68-8.69L138.38,9l-3.47,2-.19.11L71.82,48.3l5.71,7.43L58.95,66.45a43.75,43.75,0,0,0,2.72,7.28q.77,1.64,1.72,3.29.8,1.34,1.65,2.61a77.65,77.65,0,0,0-5.51,29.46q0,32.17,22.75,55t55,22.79q32.21,0,55-22.79t22.75-55Q215,76.87,192.28,54.09ZM159.72,16.78a.47.47,0,0,0,.12.19,23.81,23.81,0,0,1,1.76,2.68,36.67,36.67,0,0,1,5.09,19.11A36.55,36.55,0,0,1,161.6,57.3l-14.94-33ZM112.45,39.84,126.7,52.32l15.59-9-7.55,16.43,13.71,12.37-18.23-1.84L122.83,87l-4-18-18-1.53,15.55-9.08Zm-43.7,29.8,13-7.55L103.3,91.43a37.33,37.33,0,0,1-18.69-4.67A36.75,36.75,0,0,1,70.48,72.93a29.26,29.26,0,0,1-1.53-2.84A3.72,3.72,0,0,0,68.75,69.63Zm115.94,86.83q-14.71,14.71-34,18.42V164.51l7-3.48V143.71l-14.17,2.87L154,136.24l-9.88-19.46,2.57-2.83,3.85,3.54.1.1,3,2.72a.64.64,0,0,1,.15.12s0,0,0,0l3.83,3.52,8.35-3.87-4.21-5.55-.08-.08s0,0,0,0l0,0-7.78-10.5-.11-.11-2.11-2.87L129.35,113.6l-22.48,55.46a68.93,68.93,0,0,1-17-12.6q-19.61-19.65-19.61-47.38a67.84,67.84,0,0,1,3-20.34,44,44,0,0,0,10.07,6.43A46,46,0,0,0,96.1,99a45.22,45.22,0,0,0,13.41,0,32.53,32.53,0,0,0,16,9.08c.79.18,1.6.34,2.41.5l24.55-13.41L155.24,99l3.45-2.07a2,2,0,0,1,.23-.27A32,32,0,0,0,165.27,85a32.66,32.66,0,0,0,0-18.46,46.65,46.65,0,0,0,6.55-11.64q.54-1.42,1-2.8a69.57,69.57,0,0,1,11.91,9.61q19.61,19.65,19.61,47.42T184.69,156.46Z"/><path class="cls-4" d="M184.08,116.59l.65-.31-5.17-10.5-.8.5,0,0L166,113.87l5.9,7.74-14.75,6.82.77,2.26,25.85-13.94Z"/><path class="cls-4" d="M185.73,130.61l1.38-.61-3.29-8.92L160.6,133.14l4.06,9.23,20.95-11.72A.17.17,0,0,1,185.73,130.61Z"/><polygon class="cls-4" points="169.52 96.21 158.11 103.23 163.7 110.77 175 104.07 169.52 96.21"/><polygon class="cls-4" points="167.34 144.82 171.82 154.21 188.94 144.44 185.38 134.98 167.34 144.82"/><path d="M10.13,232.15H6.08v10.13H0V213.91H12.16q8.11,0,8.11,8.11v2q0,5-3.73,7l3.73,11.23H14.19ZM6.08,220v6.08h6.08a1.79,1.79,0,0,0,2-2v-2a1.79,1.79,0,0,0-2-2Z"/><path d="M50.71,242.29H44.63l-1.88-6.08H32.33l-1.88,6.08H24.37l8.51-28.37H42.2ZM34.17,230.13H40.9L37.54,220Z"/><path d="M60.89,213.91,71,231.14V213.91h6.08v28.37H71L60.89,225.06v17.22H54.81V213.91Z"/><path d="M83.23,242.29V213.91h6.08v13.17L97,213.91h6.48L95,228.1l8.51,14.19H97l-7.7-13.17v13.17Z"/><path d="M114.69,213.91v28.37h-6.08V213.91Z"/><path d="M126.9,213.91,137,231.14V213.91h6.08v28.37H137L126.9,225.06v17.22h-6.08V213.91Z"/><path d="M155.32,234.18a1.79,1.79,0,0,0,2,2h4.05a1.79,1.79,0,0,0,2-2v-3l-4.05-6.08h10.13v9.12q0,8.11-8.11,8.11h-4.05q-8.11,0-8.11-8.11V222q0-8.11,8.11-8.11h12.16V220H157.35a1.79,1.79,0,0,0-2,2Z"/><path d="M187.79,213.91q8.11,0,8.11,8.11,0,5.47-3.45,6.08,3.45.61,3.45,6.08,0,8.11-8.11,8.11H175.63V213.91ZM181.71,220v5.07h6.08a1.79,1.79,0,0,0,2-2v-1a1.79,1.79,0,0,0-2-2Zm0,11.15v5.07h6.08a1.79,1.79,0,0,0,2-2v-1a1.79,1.79,0,0,0-2-2Z"/><path d="M226.35,242.29h-6.08l-1.88-6.08H208l-1.88,6.08H200l8.51-28.37h9.32Zm-16.54-12.16h6.73L213.17,220Z"/><path d="M236.53,236.21h12.16v6.08H230.45V213.91h6.08Z"/><path d="M260.9,236.21h12.16v6.08H254.82V213.91h6.08Z"/></g></g></svg>