<?xml version="1.0" encoding="utf-8"?>
<!-- Generator: Adobe Illustrator 21.0.0, SVG Export Plug-In . SVG Version: 6.00 Build 0)  -->
<svg version="1.1" id="레이어_1" xmlns="http://www.w3.org/2000/svg" xmlns:xlink="http://www.w3.org/1999/xlink" x="0px"
	 y="0px" viewBox="0 0 420 114.3" style="enable-background:new 0 0 420 114.3;" xml:space="preserve">
<style type="text/css">
	.st0{fill:#474747;}
	.st1{fill:#FF7546;}
	.st2{fill:none;stroke:#FF7546;stroke-width:3;stroke-miterlimit:10;}
</style>
<title>자산 1</title>
<g id="레이어_2">
	<g id="레이어_1-2">
		<g id="레이어_2-2">
			<g id="레이어_1-2-2">
				<path id="SVGID-7" class="st0" d="M60.9,63.5l-0.2,0.3H46.4c0.7-4.9,0.2-8.5-1.8-10.7c-1.9-2.2-5.3-3.3-10.1-3.3
					c-4.3,0-8.4,2-11.1,5.4c-3.2,3.9-5.3,8.7-5.9,13.8l-2.2,14.7c-0.9,5.9-0.3,10.6,1.8,14.1c2.1,3.5,5.5,5.2,10.2,5.2
					c3.7,0.2,7.4-1.1,10.2-3.5c2.7-2.4,4.3-5.9,5-10.7h14.4l0.1,0.3c-1.1,8.2-4.4,14.5-9.9,18.8c-5.5,4.3-12.7,6.5-21.6,6.4
					c-8.5,0-15.2-2.9-19.9-8.6s-6.5-13.1-5.2-22l2.3-14.7c1.4-9.3,5.1-16.8,11.2-22.3c6.1-5.6,14-8.6,22.3-8.4
					c8.7,0,15.3,2.2,19.8,6.7S62.2,55.6,60.9,63.5L60.9,63.5z"/>
				<path class="st0" d="M109.8,64.2c-3.4-4.6-8.6-6.9-15.8-6.9c-7.3-0.3-14.4,2.5-19.6,7.6c-5.2,5.1-8.4,11.9-9.7,20.5l-0.3,2
					c-1.2,7.8,0.2,14.2,4.2,19.3c4,5.1,10,7.6,17.8,7.6c4.2,0,8.5-0.6,12.5-1.8c3.4-1,6.7-2.5,9.6-4.5l-2.7-9.1
					c-2.5,1.3-5,2.3-7.7,3.1c-2.8,0.7-5.7,1-8.6,1c-4.1,0-6.9-1.2-8.6-3.4c-1.7-2.3-2.3-5.4-1.9-9.3l0.1-0.3h32.8l1.1-7.7l0.1,0
					C114.4,74.9,113.2,68.8,109.8,64.2z M99.2,79.2L99,80.3H81.1L81,80c0.7-3,2.1-5.8,4.2-8.1c1.8-2,4.5-3.1,7.2-3.1
					c3,0,5,0.9,6,2.7l0,0C99.4,73.3,99.7,75.9,99.2,79.2z"/>
				<polygon id="SVGID-10" class="st0" points="132.8,113.2 117.9,113.2 129.8,34.1 144.6,34.1 				"/>
				<path class="st0" d="M191.9,64.3c-3.4-4.6-8.6-6.8-15.8-6.8c-7.3-0.3-14.4,2.5-19.6,7.6c-5.2,5.1-8.4,11.9-9.7,20.4l-0.3,2
					c-1.2,7.8,0.2,14.2,4.2,19.3s10,7.6,17.8,7.6c4.2,0,8.5-0.6,12.5-1.8c3.4-1,6.7-2.5,9.6-4.5l-2.7-9.1c-2.5,1.3-5,2.3-7.7,3.1
					c-2.8,0.7-5.7,1-8.6,1c-4.1,0-6.9-1.1-8.6-3.4c-1.7-2.3-2.3-5.4-1.9-9.3l0.1-0.3h32.8l1.1-7.7l0,0.1
					C196.4,74.9,195.3,68.8,191.9,64.3z M181.3,79.1l-0.2,1.1h-18l-0.1-0.3c0.7-3,2.2-5.8,4.3-8c1.8-2,4.5-3.1,7.2-3.1
					c3,0,5,0.9,6,2.7l0,0C181.5,73.2,181.8,75.8,181.3,79.1z"/>
				<path class="st0" d="M250.2,65.4c-3-5.3-7.9-8-14.5-8c-2.7,0-5.4,0.6-7.9,1.8c-2.5,1.2-4.7,2.9-6.5,5l4.6-30.1h-14.8l-11.9,79.1
					h12.5l2.3-7.2c1.1,2.5,2.9,4.6,5.2,6.1c2.4,1.5,5.2,2.2,8,2.1c6.4,0.2,12.6-2.4,16.9-7.1c4.3-4.7,7.1-11.4,8.4-19.9l0.1-1.1
					l0,0.1C254.1,77.8,253.2,70.8,250.2,65.4z M238,86.3l-0.1,1.1c-0.5,4.1-1.9,7.9-4.2,11.4c-1.9,2.7-5.1,4.3-8.5,4.1
					c-2,0.1-4-0.4-5.7-1.3c-1.5-0.9-2.6-2.2-3.2-3.9l3.4-23c1.1-1.7,2.7-3.2,4.5-4.3c1.8-1,3.9-1.6,6-1.5c3.8,0,6.3,1.5,7.4,4.6l0,0
					C238.7,76.5,238.8,80.8,238,86.3z"/>
				<circle class="st1" cx="291.2" cy="27.7" r="9.6"/>
				<circle class="st1" cx="345.1" cy="46.6" r="5.7"/>
				<circle class="st1" cx="403.7" cy="7.7" r="7.7"/>
				<line class="st2" x1="296.2" y1="30.3" x2="345.1" y2="46.6"/>
				<line class="st2" x1="347.1" y1="46.6" x2="401.7" y2="7.7"/>
			</g>
		</g>
		<path class="st1" d="M304.9,64.2c-3.4-4.6-8.6-6.8-15.8-6.8c-7.3-0.3-14.4,2.5-19.6,7.6c-5.2,5.1-8.4,11.9-9.7,20.4l-0.3,2
			c-1.2,7.8,0.2,14.2,4.2,19.3s10,7.6,17.8,7.6c4.2,0,8.5-0.6,12.5-1.8c3.4-1,6.7-2.5,9.6-4.5l-2.7-9.1c-2.5,1.3-5,2.3-7.7,3.1
			c-2.8,0.7-5.7,1-8.6,1c-4,0-6.9-1.1-8.6-3.4c-1.7-2.3-2.3-5.4-1.9-9.3l0.1-0.3h32.8l1.1-7.7l0,0C309.4,74.8,308.3,68.7,304.9,64.2
			z M294.2,79.1l-0.1,1.1H276l-0.1-0.3c0.7-3,2.2-5.8,4.3-8.1c1.8-2,4.5-3.1,7.2-3.1c3,0,5,0.9,6,2.7l0,0
			C294.5,73.2,294.7,75.8,294.2,79.1z"/>
		<path class="st1" d="M362.4,78.4l-0.1,0.3h-13.6c0.5-2.4,0.1-5-1.1-7.1c-1.3-1.9-3.6-3-5.9-2.8c-3.5-0.1-6.8,1.7-8.7,4.7
			c-2.3,3.5-3.8,7.5-4.3,11.7l-0.2,1.5c-0.8,5-0.6,9,0.6,12s3.7,4.4,7.6,4.4c2.4,0,4.6-0.8,6.4-2.3c1.8-1.6,3-3.8,3.3-6.1h13.5
			l0.1,0.3c-0.7,5.6-3.7,10.7-8.3,14.1c-4.8,3.7-10.7,5.6-16.7,5.4c-7.8,0-13.6-2.6-17.4-7.9c-3.8-5.3-5.1-11.9-3.9-19.8l0.2-1.5
			c1.3-8.3,4.5-15.1,9.6-20.1s11.8-7.6,20-7.6c6.5,0,11.5,1.9,15.1,5.8S363.6,72.1,362.4,78.4L362.4,78.4z"/>
		<path class="st1" d="M415.4,65.3c-4-5.3-9.8-7.9-17.6-7.9c-8.2,0-14.9,2.5-20.2,7.6s-8.6,11.8-9.8,20.3l-0.1,1.1
			c-1.3,8.1,0,14.8,4,20.1c4,5.3,9.8,7.9,17.6,7.9c8.2,0,14.9-2.5,20.2-7.6c5.3-5,8.6-11.8,9.9-20.4l0.1-1.1l0.1-0.1
			C420.8,77.2,419.4,70.5,415.4,65.3z M404.7,85.3l-0.2,1.1c-0.5,4.3-2.1,8.5-4.6,12c-2,2.9-5.4,4.7-9,4.6c-3.9,0-6.5-1.5-7.9-4.4
			s-1.6-7-0.8-12.2l0.1-1.1c0.5-4.3,2.1-8.3,4.5-11.8c2-3,5.4-4.7,9-4.7c3.9,0,6.5,1.5,7.8,4.5l0,0
			C405.1,76.2,405.4,80.2,404.7,85.3L404.7,85.3z"/>
	</g>
</g>
</svg>
