<?xml version="1.0" encoding="UTF-8"?>
<svg width="300px" height="55px" viewBox="0 0 300 55" version="1.1" xmlns="http://www.w3.org/2000/svg" xmlns:xlink="http://www.w3.org/1999/xlink">
    <!-- Generator: Sketch 58 (84663) - https://sketch.com -->
    <title>CI_ArenaCast_B</title>
    <desc>Created with Sketch.</desc>
    <g id="Page-1" stroke="none" stroke-width="1" fill="none" fill-rule="evenodd">
        <g id="CI_ArenaCast_201911" transform="translate(-148.000000, -296.000000)">
            <g id="기본형" transform="translate(148.000000, 178.000000)">
                <g id="CI_AC_B_1" transform="translate(0.000000, 118.000000)">
                    <g id="1">
                        <path d="M22.8941009,36.2949309 L10.639754,36.2949309 L8.36276382,41.9354839 L0,41.9354839 L12.7925447,12.9032258 L20.8655097,12.9032258 L33.6994542,41.9354839 L25.1710911,41.9354839 L22.8941009,36.2949309 Z M20.4929113,30.2396313 L16.7669275,20.9493088 L13.0409436,30.2396313 L20.4929113,30.2396313 Z M48.6861894,34.2211982 L44.2150087,34.2211982 L44.2150087,41.9354839 L36.0178442,41.9354839 L36.0178442,12.9032258 L49.2657869,12.9032258 C51.8877886,12.9032258 54.164756,13.3387053 56.0967573,14.2096774 C58.0287586,15.0806495 59.5191372,16.3248767 60.567938,17.9423963 C61.6167387,19.5599159 62.1411311,21.4608186 62.1411311,23.6451613 C62.1411311,25.7465543 61.6512382,27.5783332 60.6714375,29.140553 C59.6916368,30.7027728 58.2909569,31.9262629 56.4693557,32.8110599 L62.7207286,41.9354839 L53.9439666,41.9354839 L48.6861894,34.2211982 Z M53.861167,23.6451613 C53.861167,22.2903158 53.4333731,21.2396351 52.5777725,20.4930876 C51.7221719,19.74654 50.4525901,19.3732719 48.768989,19.3732719 L44.2150087,19.3732719 L44.2150087,27.875576 L48.768989,27.875576 C50.4525901,27.875576 51.7221719,27.5092203 52.5777725,26.7764977 C53.4333731,26.0437751 53.861167,25.0000068 53.861167,23.6451613 Z M89.920411,35.5898618 L89.920411,41.9354839 L66.6537116,41.9354839 L66.6537116,12.9032258 L89.3822133,12.9032258 L89.3822133,19.2488479 L74.7680765,19.2488479 L74.7680765,24.1428571 L87.6434208,24.1428571 L87.6434208,30.281106 L74.7680765,30.281106 L74.7680765,35.5898618 L89.920411,35.5898618 Z M122.046672,12.9032258 L122.046672,41.9354839 L115.298501,41.9354839 L102.505957,26.4654378 L102.505957,41.9354839 L94.4743913,41.9354839 L94.4743913,12.9032258 L101.222562,12.9032258 L114.015107,28.3732719 L114.015107,12.9032258 L122.046672,12.9032258 Z M145.230572,12.9032258 L158.064516,41.9354839 L149.536153,41.9354839 L147.259163,36.2949309 L135.004816,36.2949309 L132.727826,41.9354839 L124.365062,41.9354839 L137.157607,12.9032258 L145.230572,12.9032258 Z M141.131989,20.9493088 L137.406006,30.2396313 L144.857973,30.2396313 L141.131989,20.9493088 Z" id="ARENA" fill="#2C2C2C" fill-rule="nonzero"></path>
                        <g id="Cast" transform="translate(158.064516, 0.000000)">
                            <rect id="Rectangle" fill="#2C2C2C" x="0" y="0" width="141.935484" height="54.8387097" rx="27.4193548"></rect>
                            <path d="M68.7755622,35.4393156 L55.8452822,35.4393156 L53.3785827,41.4542862 L46.7741935,41.4542862 L59.1872623,13.3844235 L65.5529386,13.3844235 L78.0057928,41.4542862 L71.2422617,41.4542862 L68.7755622,35.4393156 Z M66.7465029,30.5070397 L62.3303149,19.7602923 L57.914127,30.5070397 L66.7465029,30.5070397 Z M90.0607922,41.9354839 C87.8593182,41.9354839 85.7308164,41.6347383 83.6752232,41.0332383 C81.61963,40.4317382 79.9685492,39.6497999 78.7219313,38.6873998 L80.9101326,33.7952237 C82.1037028,34.6774238 83.522704,35.3858466 85.1671786,35.9205133 C86.8116532,36.45518 88.4561031,36.7225094 90.1005777,36.7225094 C91.9307188,36.7225094 93.2834114,36.4484968 94.1586963,35.9004634 C95.0339812,35.35243 95.471617,34.6239575 95.471617,33.7150241 C95.471617,33.0466907 95.213014,32.4919822 94.6958002,32.0508822 C94.1785865,31.6097821 93.5155018,31.2555708 92.7065264,30.9882374 C91.897551,30.720904 90.8034613,30.4268417 89.4242246,30.1060417 C87.3023219,29.5981083 85.5650401,29.0901825 84.2123271,28.5822492 C82.8596142,28.0743158 81.699216,27.2589612 80.7310979,26.1361611 C79.7629798,25.013361 79.278928,23.5163166 79.278928,21.6449831 C79.278928,20.0142496 79.7165639,18.5372549 80.5918488,17.2139547 C81.4671336,15.8906546 82.7866721,14.8413869 84.5505037,14.0661201 C86.3143353,13.2908534 88.4693604,12.9032258 91.0156436,12.9032258 C92.7927372,12.9032258 94.5300189,13.1170893 96.2275411,13.5448227 C97.9250633,13.9725561 99.4103729,14.5874136 100.683514,15.3894137 L98.6942407,20.3216895 C96.1214336,18.851356 93.5486652,18.1162003 90.9758582,18.1162003 C89.1722409,18.1162003 87.8394407,18.4102626 86.9774178,18.998396 C86.1153948,19.5865294 85.6843898,20.3617845 85.6843898,21.3241846 C85.6843898,22.2865847 86.1817033,23.0016908 87.1763451,23.4695241 C88.170987,23.9373575 89.6894509,24.3985007 91.7317822,24.8529674 C93.8536849,25.3609008 95.5909667,25.8688265 96.9436797,26.3767599 C98.2963927,26.8846933 99.4567908,27.6866814 100.424909,28.7827482 C101.393027,29.878815 101.877079,31.3624929 101.877079,33.2338264 C101.877079,34.8378266 101.432812,36.3014548 100.544265,37.6247549 C99.6557186,38.9480551 98.3229184,39.9973228 96.5458249,40.7725896 C94.7687314,41.5478563 92.6070754,41.9354839 90.0607922,41.9354839 Z M112.062161,18.6775976 L103.150214,18.6775976 L103.150214,13.3844235 L127.419355,13.3844235 L127.419355,18.6775976 L118.507408,18.6775976 L118.507408,41.4542862 L112.062161,41.4542862 L112.062161,18.6775976 Z" id="AST" fill="#FFBE00" fill-rule="nonzero"></path>
                            <path d="M28.7309465,8.06451613 C31.77615,8.06451613 34.5613553,8.56009596 37.0866461,9.5512705 C39.6119368,10.542445 41.7658289,12.0111635 43.5483871,13.9574698 L39.9275839,17.3634889 C36.9937903,14.371944 33.3358873,12.8761939 28.9537651,12.8761939 C26.0571081,12.8761939 23.4390151,13.5069319 21.0994075,14.7684267 C18.7597999,16.0299216 16.9308484,17.7689563 15.6124981,19.985583 C14.2941478,22.2022097 13.6349825,24.6801088 13.6349825,27.4193548 C13.6349825,30.1586008 14.2941478,32.6365 15.6124981,34.8531267 C16.9308484,37.0697534 18.7597999,38.8087881 21.0994075,40.0702829 C23.4390151,41.3317778 26.0571081,41.9625158 28.9537651,41.9625158 C33.2987506,41.9625158 36.9566537,40.4487446 39.9275839,37.421157 L43.5483871,40.8271761 C41.7658289,42.7734824 39.6026528,44.2512114 37.0587937,45.2604073 C34.5149347,46.2696032 31.7204453,46.7741935 28.6752418,46.7741935 C24.7758958,46.7741935 21.2572531,45.9362131 18.119208,44.2602271 C14.9811629,42.584241 12.5208982,40.2775422 10.73834,37.3400613 C8.95578184,34.4025804 8.06451613,31.0957113 8.06451613,27.4193548 C8.06451613,23.7429984 8.95578184,20.4361293 10.73834,17.4986484 C12.5208982,14.5611675 14.9904469,12.2544686 18.1470603,10.5784826 C21.3036737,8.90249658 24.8316005,8.06451613 28.7309465,8.06451613 Z M25.4030504,19.3548387 C25.637486,19.3548387 25.8668691,19.4231767 26.063294,19.551539 L36.5473753,26.4028111 C37.1070591,26.7685605 37.2651713,27.5201495 36.9005288,28.0815322 C36.808662,28.2229651 36.6883802,28.343612 36.5473753,28.4357577 L26.063294,35.2870299 C25.5036102,35.6527792 24.7542958,35.4941871 24.3896534,34.9328044 C24.2616795,34.7357832 24.1935484,34.5057038 24.1935484,34.2705566 L24.1935484,20.5680123 C24.1935484,19.897995 24.7350609,19.3548387 25.4030504,19.3548387 Z" id="Combined-Shape" fill="#FFBE00" fill-rule="nonzero"></path>
                        </g>
                    </g>
                </g>
            </g>
        </g>
    </g>
</svg>