<?xml version="1.0" encoding="UTF-8"?>
<!DOCTYPE svg PUBLIC "-//W3C//DTD SVG 1.1//EN" "http://www.w3.org/Graphics/SVG/1.1/DTD/svg11.dtd">
<svg xmlns="http://www.w3.org/2000/svg" version="1.1" width="45px" height="45px" style="shape-rendering:geometricPrecision; text-rendering:geometricPrecision; image-rendering:optimizeQuality; fill-rule:evenodd; clip-rule:evenodd" xmlns:xlink="http://www.w3.org/1999/xlink">
<g><path style="opacity:1" fill="#4da6d7" d="M 22.5,6.5 C 24.9726,6.08824 26.3059,7.08824 26.5,9.5C 26.6309,10.3764 26.2975,11.0431 25.5,11.5C 22.8257,9.98412 20.4924,10.3174 18.5,12.5C 18.5,11.8333 18.1667,11.5 17.5,11.5C 18.1667,8.83333 19.8333,7.16667 22.5,6.5 Z"/></g>
<g><path style="opacity:1" fill="#32599b" d="M 22.5,6.5 C 25.533,5.28169 28.1996,5.94836 30.5,8.5C 30.1667,9.16667 29.8333,9.83333 29.5,10.5C 29.7373,11.791 29.404,12.791 28.5,13.5C 28.0113,12.0048 27.3446,10.6715 26.5,9.5C 26.3059,7.08824 24.9726,6.08824 22.5,6.5 Z"/></g>
<g><path style="opacity:1" fill="#409eda" d="M 26.5,9.5 C 27.3446,10.6715 28.0113,12.0048 28.5,13.5C 28.5,15.1667 28.5,16.8333 28.5,18.5C 28.5,19.1667 28.5,19.8333 28.5,20.5C 27.8902,21.391 27.5569,22.391 27.5,23.5C 26.391,23.5569 25.391,23.8902 24.5,24.5C 23.5084,24.6716 22.8417,24.3382 22.5,23.5C 24.1667,22.5 25.5,21.1667 26.5,19.5C 27.7911,18.4583 27.7911,17.2917 26.5,16C 23.3337,15.6779 20.667,14.5113 18.5,12.5C 20.4924,10.3174 22.8257,9.98412 25.5,11.5C 26.2975,11.0431 26.6309,10.3764 26.5,9.5 Z"/></g>
<g><path style="opacity:1" fill="#2d76bb" d="M 29.5,10.5 C 31.1033,10.3118 32.4366,10.8118 33.5,12C 31.9697,14.352 30.3031,16.5187 28.5,18.5C 28.5,16.8333 28.5,15.1667 28.5,13.5C 29.404,12.791 29.7373,11.791 29.5,10.5 Z"/></g>
<g><path style="opacity:1" fill="#1c3e82" d="M 30.5,8.5 C 33.135,9.47349 35.135,11.1402 36.5,13.5C 36.5,13.8333 36.5,14.1667 36.5,14.5C 32.8333,14.8333 30.8333,16.8333 30.5,20.5C 29.8333,20.5 29.1667,20.5 28.5,20.5C 28.5,19.8333 28.5,19.1667 28.5,18.5C 30.3031,16.5187 31.9697,14.352 33.5,12C 32.4366,10.8118 31.1033,10.3118 29.5,10.5C 29.8333,9.83333 30.1667,9.16667 30.5,8.5 Z"/></g>
<g><path style="opacity:1" fill="#409bd8" d="M 17.5,11.5 C 18.1667,11.5 18.5,11.8333 18.5,12.5C 20.667,14.5113 23.3337,15.6779 26.5,16C 27.7911,17.2917 27.7911,18.4583 26.5,19.5C 26.5299,18.5028 26.0299,17.8361 25,17.5C 22.6003,16.9559 20.267,16.2892 18,15.5C 17.6012,15.7284 17.4346,16.0618 17.5,16.5C 16.2921,17.2341 14.9587,17.5674 13.5,17.5C 13.4326,16.0413 13.7659,14.7079 14.5,13.5C 15.2905,12.5987 16.2905,11.9321 17.5,11.5 Z"/></g>
<g><path style="opacity:0.012" fill="#1e1f34" d="M 2.5,13.5 C 3.72813,14.3065 4.72813,15.3065 5.5,16.5C 5.5,17.1667 5.16667,17.5 4.5,17.5C 2.89578,16.713 2.22911,15.3797 2.5,13.5 Z"/></g>
<g><path style="opacity:0.999" fill="#d1d1d4" d="M 37.5,16.5 C 39.6282,17.9573 41.9616,18.9573 44.5,19.5C 44.5,19.8333 44.5,20.1667 44.5,20.5C 42.2492,21.8647 40.2492,21.5314 38.5,19.5C 37.8333,18.8333 37.1667,18.1667 36.5,17.5C 36.5,16.8333 36.8333,16.5 37.5,16.5 Z"/></g>
<g><path style="opacity:0.792" fill="#345e95" d="M 2.5,13.5 C 2.22911,15.3797 2.89578,16.713 4.5,17.5C 4.44312,18.609 4.10978,19.609 3.5,20.5C 1.95721,19.2642 0.957212,17.5976 0.5,15.5C 0.855491,14.4777 1.52216,13.811 2.5,13.5 Z"/></g>
<g><path style="opacity:1" fill="#51acdd" d="M 11.5,20.5 C 6.31909,18.1065 3.81909,19.7731 4,25.5C 3.32924,26.2524 2.4959,26.5858 1.5,26.5C 2.16667,24.5 2.83333,22.5 3.5,20.5C 4.10978,19.609 4.44312,18.609 4.5,17.5C 5.16667,17.5 5.5,17.1667 5.5,16.5C 7.43525,15.8505 9.43525,15.5172 11.5,15.5C 11.5,17.1667 11.5,18.8333 11.5,20.5 Z"/></g>
<g><path style="opacity:1" fill="#3f8ec5" d="M 14.5,13.5 C 13.7659,14.7079 13.4326,16.0413 13.5,17.5C 14.9587,17.5674 16.2921,17.2341 17.5,16.5C 17.001,19.3892 15.501,20.0558 13,18.5C 12.5357,19.0944 12.369,19.7611 12.5,20.5C 12.1667,20.5 11.8333,20.5 11.5,20.5C 11.5,18.8333 11.5,17.1667 11.5,15.5C 9.43525,15.5172 7.43525,15.8505 5.5,16.5C 5.61071,15.8826 5.94404,15.3826 6.5,15C 9.20659,14.6049 11.8733,14.1049 14.5,13.5 Z"/></g>
<g><path style="opacity:1" fill="#3489ce" d="M 26.5,19.5 C 25.5,21.1667 24.1667,22.5 22.5,23.5C 21.8163,21.8148 20.483,20.8148 18.5,20.5C 16.5841,21.2483 14.5841,21.2483 12.5,20.5C 12.369,19.7611 12.5357,19.0944 13,18.5C 15.501,20.0558 17.001,19.3892 17.5,16.5C 17.4346,16.0618 17.6012,15.7284 18,15.5C 20.267,16.2892 22.6003,16.9559 25,17.5C 26.0299,17.8361 26.5299,18.5028 26.5,19.5 Z"/></g>
<g><path style="opacity:1" fill="#2568b9" d="M 36.5,14.5 C 36.8333,15.1667 37.1667,15.8333 37.5,16.5C 36.8333,16.5 36.5,16.8333 36.5,17.5C 34.6675,18.2485 33.0009,19.2485 31.5,20.5C 31.1667,20.5 30.8333,20.5 30.5,20.5C 30.8333,16.8333 32.8333,14.8333 36.5,14.5 Z"/></g>
<g><path style="opacity:0.016" fill="#161934" d="M 36.5,13.5 C 39.1841,15.1933 41.8508,16.86 44.5,18.5C 44.5,18.8333 44.5,19.1667 44.5,19.5C 41.9616,18.9573 39.6282,17.9573 37.5,16.5C 37.1667,15.8333 36.8333,15.1667 36.5,14.5C 36.5,14.1667 36.5,13.8333 36.5,13.5 Z"/></g>
<g><path style="opacity:1" fill="#3a93d4" d="M 11.5,20.5 C 11.5674,21.9587 11.2341,23.2921 10.5,24.5C 8.86928,26.6433 6.86928,28.31 4.5,29.5C 3.5,29.5 2.5,29.5 1.5,29.5C 1.5,28.5 1.5,27.5 1.5,26.5C 2.4959,26.5858 3.32924,26.2524 4,25.5C 3.81909,19.7731 6.31909,18.1065 11.5,20.5 Z"/></g>
<g><path style="opacity:1" fill="#398bc9" d="M 36.5,17.5 C 37.1667,18.1667 37.8333,18.8333 38.5,19.5C 36.6481,22.6976 33.9814,24.6976 30.5,25.5C 30.7148,27.1788 30.0481,28.1788 28.5,28.5C 28.0618,28.5654 27.7284,28.3988 27.5,28C 28.8228,27.1841 29.4894,26.0174 29.5,24.5C 30.1667,24.5 30.5,24.1667 30.5,23.5C 31.404,22.791 31.7373,21.791 31.5,20.5C 33.0009,19.2485 34.6675,18.2485 36.5,17.5 Z"/></g>
<g><path style="opacity:0.176" fill="#090e2c" d="M 38.5,19.5 C 40.2492,21.5314 42.2492,21.8647 44.5,20.5C 44.5,21.1667 44.5,21.8333 44.5,22.5C 40.1892,21.536 37.1892,23.036 35.5,27C 33.3386,27.5847 31.3386,28.4181 29.5,29.5C 29.1667,29.5 28.8333,29.5 28.5,29.5C 28.5,29.1667 28.5,28.8333 28.5,28.5C 30.0481,28.1788 30.7148,27.1788 30.5,25.5C 33.9814,24.6976 36.6481,22.6976 38.5,19.5 Z"/></g>
<g><path style="opacity:1" fill="#276bb8" d="M 11.5,20.5 C 11.8333,20.5 12.1667,20.5 12.5,20.5C 14.5841,21.2483 16.5841,21.2483 18.5,20.5C 20.483,20.8148 21.8163,21.8148 22.5,23.5C 22.8417,24.3382 23.5084,24.6716 24.5,24.5C 23.8333,25.1667 23.1667,25.8333 22.5,26.5C 20.9373,27.9448 19.604,29.6115 18.5,31.5C 17.1667,31.5 16.5,30.8333 16.5,29.5C 16.33,28.1779 16.6634,27.0113 17.5,26C 15.3225,24.7978 12.9892,24.2978 10.5,24.5C 11.2341,23.2921 11.5674,21.9587 11.5,20.5 Z"/></g>
<g><path style="opacity:0.349" fill="#111832" d="M 28.5,20.5 C 29.1667,20.5 29.8333,20.5 30.5,20.5C 30.8333,20.5 31.1667,20.5 31.5,20.5C 31.7373,21.791 31.404,22.791 30.5,23.5C 29.5,23.5 28.5,23.5 27.5,23.5C 27.5569,22.391 27.8902,21.391 28.5,20.5 Z"/></g>
<g><path style="opacity:1" fill="#103274" d="M 27.5,23.5 C 28.5,23.5 29.5,23.5 30.5,23.5C 30.5,24.1667 30.1667,24.5 29.5,24.5C 28.448,24.3505 27.448,24.5172 26.5,25C 25.1667,25.6667 25.1667,26.3333 26.5,27C 25.7562,28.0386 24.7562,28.5386 23.5,28.5C 25.0311,27.0755 24.6977,26.4088 22.5,26.5C 23.1667,25.8333 23.8333,25.1667 24.5,24.5C 25.391,23.8902 26.391,23.5569 27.5,23.5 Z"/></g>
<g><path style="opacity:1" fill="#2a70b7" d="M 29.5,24.5 C 29.4894,26.0174 28.8228,27.1841 27.5,28C 27.7284,28.3988 28.0618,28.5654 28.5,28.5C 28.5,28.8333 28.5,29.1667 28.5,29.5C 26.8583,31.0808 24.8583,31.7475 22.5,31.5C 22.2627,30.209 22.596,29.209 23.5,28.5C 24.7562,28.5386 25.7562,28.0386 26.5,27C 25.1667,26.3333 25.1667,25.6667 26.5,25C 27.448,24.5172 28.448,24.3505 29.5,24.5 Z"/></g>
<g><path style="opacity:0.109" fill="#0d1431" d="M 10.5,24.5 C 12.9892,24.2978 15.3225,24.7978 17.5,26C 16.6634,27.0113 16.33,28.1779 16.5,29.5C 16.1667,29.5 15.8333,29.5 15.5,29.5C 15.719,28.325 15.3857,27.325 14.5,26.5C 11.7163,27.3917 9.04959,28.5584 6.5,30C 5.13865,31.5843 4.47199,33.4176 4.5,35.5C 1.98143,33.6409 1.98143,31.6409 4.5,29.5C 6.86928,28.31 8.86928,26.6433 10.5,24.5 Z"/></g>
<g><path style="opacity:0.98" fill="#1e4ea0" d="M 1.5,26.5 C 1.5,27.5 1.5,28.5 1.5,29.5C 2.5,29.5 3.5,29.5 4.5,29.5C 1.98143,31.6409 1.98143,33.6409 4.5,35.5C 3.36465,37.2132 1.69798,37.8799 -0.5,37.5C -0.5,35.5 -0.5,33.5 -0.5,31.5C 0.166667,29.8333 0.833333,28.1667 1.5,26.5 Z"/></g>
<g><path style="opacity:0.067" fill="#131730" d="M 22.5,26.5 C 24.6977,26.4088 25.0311,27.0755 23.5,28.5C 22.596,29.209 22.2627,30.209 22.5,31.5C 24.8583,31.7475 26.8583,31.0808 28.5,29.5C 28.8333,29.5 29.1667,29.5 29.5,29.5C 27.1413,33.0222 24.308,33.6889 21,31.5C 20.9846,33.7914 20.8179,35.9581 20.5,38C 18.1393,40.1089 16.1393,39.9422 14.5,37.5C 16.288,37.7852 17.9547,37.4519 19.5,36.5C 18.6906,34.9291 18.3573,33.2624 18.5,31.5C 19.604,29.6115 20.9373,27.9448 22.5,26.5 Z"/></g>
<g><path style="opacity:1" fill="#0f3788" d="M 15.5,29.5 C 15.8333,29.5 16.1667,29.5 16.5,29.5C 16.5,30.8333 17.1667,31.5 18.5,31.5C 18.3573,33.2624 18.6906,34.9291 19.5,36.5C 17.9547,37.4519 16.288,37.7852 14.5,37.5C 14.2786,34.7212 14.612,32.0545 15.5,29.5 Z"/></g>
<g><path style="opacity:0.055" fill="#0d122c" d="M 4.5,35.5 C 5.7759,36.3864 5.7759,37.3864 4.5,38.5C 2.87162,39.5353 1.20495,39.5353 -0.5,38.5C -0.5,38.1667 -0.5,37.8333 -0.5,37.5C 1.69798,37.8799 3.36465,37.2132 4.5,35.5 Z"/></g>
</svg>
